<?xml version="1.0" standalone="no"?><!DOCTYPE svg PUBLIC "-//W3C//DTD SVG 1.1//EN" "http://www.w3.org/Graphics/SVG/1.1/DTD/svg11.dtd"><svg t="1684926871516" class="icon" viewBox="0 0 1024 1024" version="1.1" xmlns="http://www.w3.org/2000/svg" p-id="4742" xmlns:xlink="http://www.w3.org/1999/xlink" width="200" height="200"><path d="M876.122533 467.355197l-3.75451-40.314171c-16.874319 3.738138-47.812959 8.436136-71.239508 8.436136-107.816564 0-99.378381-125.631302-227.807403-125.631302-114.38005 0-214.686571 54.378491-264.380366 152.815431-2.813069-0.933255-6.554276-0.933255-10.307763-0.933255-16.874319 0-33.749662 13.121855-44.99989 28.126594l-54.377468-45.942355-95.622848 115.311259L275.191084 711.094454l105.002472-113.439632-52.496631-44.997843c11.251252-13.120832 20.61655-25.309432 20.61655-43.11496 0-8.438183-1.870604-16.876366-5.625114-23.442922 31.878035-59.058071 85.314061-97.504708 155.62543-99.375312-4.683672 61.872163-2.813069 110.62554-5.624091 150.939711-6.568602 103.119589-38.435381 154.683988-259.685437 226.866984l0 46.871517c152.812361-15.932878 272.804223-60.931744 338.431919-187.492208 86.252433 24.37106 140.622738 121.874745 140.622738 240.926188 0 15.944134-1.87265 34.69008-2.814092 51.565423l56.251142 0c8.435113-37.503149 12.1886-74.063833 12.1886-108.742656 0-107.813494-44.056402-199.682855-143.432737-248.435209l24.370037-142.503575c25.309432 35.630499 61.873186 76.875878 104.060007 76.875878C792.690332 493.595838 848.938404 478.604402 876.122533 467.355197L876.122533 467.355197zM324.88488 511.410576c0 8.436136-8.43716 17.816784-15.003715 26.251897l-38.432311-32.81436c6.5553-8.439206 14.992459-19.688411 27.183106-19.688411l-3.753487 9.377578 29.065989 12.190647C323.944462 508.597507 324.88488 509.542019 324.88488 511.410576z" fill="#002B66" p-id="4743"></path><path d="M649.258619 224.543056c0-32.819476-27.198455-60.002582-60.004629-60.002582-32.80822 0-60.003606 27.183106-60.003606 60.002582 0 32.80822 27.195386 59.991326 60.003606 59.991326C622.060163 284.534382 649.258619 257.351276 649.258619 224.543056z" fill="#002B66" p-id="4744"></path></svg>